<?xml version="1.0" encoding="UTF-8"?>
<svg xmlns="http://www.w3.org/2000/svg" version="1.1" viewBox="0 0 32 32">
  <defs>
    <style>
      .cls-1 {
        fill: #8e2424;
        fill-rule: evenodd;
      }
    </style>
  </defs>
  <!-- Generator: Adobe Illustrator 28.6.0, SVG Export Plug-In . SVG Version: 1.2.0 Build 709)  -->
  <g>
    <g id="Camada_1">
      <g id="Camada_1-2" data-name="Camada_1">
        <path class="cls-1" d="M14.8.4c-2,.2-3.6.6-5.1,1.3-1.2.5-2.6,1.3-2.9,1.6s0,.9.3.9.3,0,.9-.3c.8-.5,2-1.2,2.9-1.4.6-.2,2.1-.7,2.3-.7s.1,0,0,.1c-1,1.5-1.7,3.4-2.2,5.9v.5h-.5c-.9.2-1.6.8-1.9,1.7H2.7s.7-1.5,1-2c.5-.7.5-.9.1-1.2-.2-.1-.2-.2-.5-.1q-.3,0-.8.7c-3.3,5.6-3.1,12.2.3,17.4l.2.3-.2.3c-.2.5-.3,1-.2,1.6.3,1.7,2.2,2.7,3.7,1.9l.3-.2.6.3c2.4,1.6,5.1,2.4,8.2,2.6,5.5.2,10.6-2.4,13.7-7.1,1.7-2.7,2.7-5.9,2.6-9.1,0-3-.9-5.6-2.6-8.2l-.3-.6.2-.3c.2-.5.3-1,.2-1.6-.3-1.7-2.2-2.7-3.7-1.9l-.3.2-.3-.2c-2-1.3-4.2-2.2-6.5-2.6-.6,0-2.8-.1-3.4-.1h-.2ZM16.5,1.8c1.4.6,2.7,3.7,3.4,7.6,0,.5.1.8.1.9v.2h-6.3v-.3c-.2-.6-.6-.9-1.4-1.4,0,0,.1-.9.3-1.9.8-3.1,2.2-5.2,3.4-5.2s.3,0,.6.1h-.1ZM19.6,2c.5,0,1,.3,1.4.5,1.4.5,3.4,1.6,3.4,1.9-.1.3-.2.9-.2,1.3.1,1.7,1.9,2.8,3.6,2.2,0,0,.2,0,.5.5.3.5,1.2,2,1.2,2.1s-1.7,0-4,0h-4v-1c-.7-3-1.5-5.5-2.4-7-.1-.2-.2-.5-.3-.5,0-.1.1,0,1,.1h-.1ZM27.2,4.2c1,.5.9,2,0,2.4-.9.5-2-.3-1.9-1.4,0-.7.7-1.3,1.3-1.3s.3,0,.6.1h0ZM4.8,5.2c-.2.2-.2.5-.1.7.2.5.8.5,1,0,.1-.3,0-.7-.2-.8s-.5,0-.7.1ZM11.8,9.8c.7.3.9,1,.7,1.7-.5,1-1.9,1-2.4,0-.1-.2-.1-.3-.1-.7,0-.9,1-1.5,2-1.2h-.1ZM8.7,11.8c.2.7.7,1.3,1.3,1.6h.3v1.9c0,1.5,0,3,.1,4.8v.6H2.1v-.2c-.2-.5-.5-1.5-.6-2.1v-2.1c0-1.6.1-2.6.6-4.1v-.3h3.4c3,0,3.3,0,3.3,0ZM20.1,11.8c.1.3.2,4.3.2,5.8v1h-.2c-.3,0-.9.3-1.3.7s-.7.9-.7,1h-6.5c-.1-.3-.2-4.3-.2-5.8v-1h.3c.3,0,.9-.5,1.2-.8.2-.2.5-.7.5-.9h6.8ZM29.8,11.9c.1.5.3,1.5.5,2.1.1.9.1,3.1,0,4.1,0,.7-.2,1.5-.5,2.1v.3h-6.6l-.2-.3c-.2-.5-.7-1-1.2-1.3l-.3-.2v-7.1h8.4v.2h0ZM21.3,20c.2,0,.3.2.5.5.1.2.2.3.2.7s0,.5-.2.7c-.2.3-.7.6-1,.6-.8,0-1.4-.6-1.4-1.4s1-1.6,2-1.2h0ZM10.8,22.7c.5,3,1.3,5.6,2.3,7.1.2.3.2.5.1.5s-1.7-.3-2.3-.6c-1.4-.5-3.4-1.6-3.4-1.9.1-.3.2-.9.2-1.3-.1-1.7-1.9-2.8-3.6-2.2,0,0-.2,0-.5-.5-.3-.5-1.2-2-1.2-2.1s1.7,0,4,0h4v1h.3ZM18.3,21.8s0,.2.1.3c.2.3.7.9,1,1.2.1,0,.2.2.2.2,0,.1-.3,1.7-.6,2.3-.7,2.3-1.7,4.1-2.7,4.5-.5.2-.7.2-1,0-1.4-.6-2.7-3.6-3.4-7.6,0-.6-.2-1-.2-1.2h6.5ZM29.3,21.8s-.7,1.5-.9,1.9c-1.2,1.9-2.9,3.6-4.8,4.8-.7.3-1.7.9-2.6,1.3-.7.2-2.2.7-2.4.7s-.1,0,0-.1c.9-1.5,1.7-3.4,2.2-5.9v-.5h.5c.8-.2,1.4-.7,1.7-1.5l.2-.3h6.1v-.2ZM5.9,25.7c1,.6.9,2-.1,2.4-.9.3-1.9-.3-1.7-1.3,0-.7.7-1.3,1.3-1.3s.3,0,.6.1Z"/>
      </g>
    </g>
  </g>
</svg>